<mxfile host="app.diagrams.net" agent="Mozilla/5.0 (X11; Linux x86_64; rv:134.0) Gecko/20100101 Firefox/134.0" version="26.0.6">
  <diagram name="Page-1" id="lOFW8lWt-N1kBp46kLI4">
    <mxGraphModel dx="2094" dy="2395" grid="1" gridSize="10" guides="1" tooltips="1" connect="1" arrows="1" fold="1" page="1" pageScale="1" pageWidth="850" pageHeight="1100" math="0" shadow="0">
      <root>
        <mxCell id="0" />
        <mxCell id="1" parent="0" />
        <mxCell id="rgN-U1eAydfDt8y_0uh5-29" value="Навички" style="rounded=0;whiteSpace=wrap;html=1;" vertex="1" parent="1">
          <mxGeometry x="900" y="-100" width="120" height="20" as="geometry" />
        </mxCell>
        <mxCell id="rgN-U1eAydfDt8y_0uh5-30" value="назва" style="ellipse;whiteSpace=wrap;html=1;" vertex="1" parent="1">
          <mxGeometry x="920" y="-70" width="80" height="30" as="geometry" />
        </mxCell>
        <mxCell id="rgN-U1eAydfDt8y_0uh5-34" value="&lt;p&gt;ідентифікатор навички&lt;/p&gt;" style="ellipse;whiteSpace=wrap;html=1;" vertex="1" parent="1">
          <mxGeometry x="910" y="-160" width="100" height="50" as="geometry" />
        </mxCell>
        <mxCell id="rgN-U1eAydfDt8y_0uh5-39" value="" style="endArrow=none;html=1;rounded=0;entryX=0.5;entryY=0;entryDx=0;entryDy=0;exitX=0.5;exitY=1;exitDx=0;exitDy=0;" edge="1" parent="1" source="rgN-U1eAydfDt8y_0uh5-29" target="rgN-U1eAydfDt8y_0uh5-30">
          <mxGeometry width="50" height="50" relative="1" as="geometry">
            <mxPoint x="1000" y="-30" as="sourcePoint" />
            <mxPoint x="1032" y="-16" as="targetPoint" />
          </mxGeometry>
        </mxCell>
        <mxCell id="rgN-U1eAydfDt8y_0uh5-41" value="" style="endArrow=none;html=1;rounded=0;entryX=0.5;entryY=1;entryDx=0;entryDy=0;exitX=0.5;exitY=0;exitDx=0;exitDy=0;" edge="1" parent="1" source="rgN-U1eAydfDt8y_0uh5-29" target="rgN-U1eAydfDt8y_0uh5-34">
          <mxGeometry width="50" height="50" relative="1" as="geometry">
            <mxPoint x="1030" y="-90" as="sourcePoint" />
            <mxPoint x="1090" y="-100" as="targetPoint" />
          </mxGeometry>
        </mxCell>
        <mxCell id="rgN-U1eAydfDt8y_0uh5-43" value="Статуси замовлення" style="rounded=0;whiteSpace=wrap;html=1;" vertex="1" parent="1">
          <mxGeometry x="1590" y="400" width="120" height="20" as="geometry" />
        </mxCell>
        <mxCell id="rgN-U1eAydfDt8y_0uh5-44" value="назва" style="ellipse;whiteSpace=wrap;html=1;" vertex="1" parent="1">
          <mxGeometry x="1610" y="430" width="80" height="30" as="geometry" />
        </mxCell>
        <mxCell id="rgN-U1eAydfDt8y_0uh5-45" value="&lt;p&gt;ідентифікатор статусу&lt;br&gt;&lt;/p&gt;" style="ellipse;whiteSpace=wrap;html=1;" vertex="1" parent="1">
          <mxGeometry x="1600" y="340" width="100" height="50" as="geometry" />
        </mxCell>
        <mxCell id="rgN-U1eAydfDt8y_0uh5-46" value="" style="endArrow=none;html=1;rounded=0;entryX=0.5;entryY=0;entryDx=0;entryDy=0;exitX=0.5;exitY=1;exitDx=0;exitDy=0;" edge="1" parent="1" source="rgN-U1eAydfDt8y_0uh5-43" target="rgN-U1eAydfDt8y_0uh5-44">
          <mxGeometry width="50" height="50" relative="1" as="geometry">
            <mxPoint x="1690" y="470" as="sourcePoint" />
            <mxPoint x="1722" y="484" as="targetPoint" />
          </mxGeometry>
        </mxCell>
        <mxCell id="rgN-U1eAydfDt8y_0uh5-47" value="" style="endArrow=none;html=1;rounded=0;entryX=0.5;entryY=1;entryDx=0;entryDy=0;exitX=0.5;exitY=0;exitDx=0;exitDy=0;" edge="1" parent="1" source="rgN-U1eAydfDt8y_0uh5-43" target="rgN-U1eAydfDt8y_0uh5-45">
          <mxGeometry width="50" height="50" relative="1" as="geometry">
            <mxPoint x="1720" y="410" as="sourcePoint" />
            <mxPoint x="1780" y="400" as="targetPoint" />
          </mxGeometry>
        </mxCell>
        <mxCell id="rgN-U1eAydfDt8y_0uh5-49" value="Мови" style="rounded=0;whiteSpace=wrap;html=1;" vertex="1" parent="1">
          <mxGeometry x="390" y="-130" width="120" height="20" as="geometry" />
        </mxCell>
        <mxCell id="rgN-U1eAydfDt8y_0uh5-50" value="назва" style="ellipse;whiteSpace=wrap;html=1;" vertex="1" parent="1">
          <mxGeometry x="410" y="-100" width="80" height="30" as="geometry" />
        </mxCell>
        <mxCell id="rgN-U1eAydfDt8y_0uh5-51" value="&lt;p&gt;ідентифікатор мови&lt;/p&gt;" style="ellipse;whiteSpace=wrap;html=1;" vertex="1" parent="1">
          <mxGeometry x="400" y="-190" width="100" height="50" as="geometry" />
        </mxCell>
        <mxCell id="rgN-U1eAydfDt8y_0uh5-52" value="" style="endArrow=none;html=1;rounded=0;entryX=0.5;entryY=0;entryDx=0;entryDy=0;exitX=0.5;exitY=1;exitDx=0;exitDy=0;" edge="1" parent="1" source="rgN-U1eAydfDt8y_0uh5-49" target="rgN-U1eAydfDt8y_0uh5-50">
          <mxGeometry width="50" height="50" relative="1" as="geometry">
            <mxPoint x="490" y="-60" as="sourcePoint" />
            <mxPoint x="522" y="-46" as="targetPoint" />
          </mxGeometry>
        </mxCell>
        <mxCell id="rgN-U1eAydfDt8y_0uh5-53" value="" style="endArrow=none;html=1;rounded=0;entryX=0.5;entryY=1;entryDx=0;entryDy=0;exitX=0.5;exitY=0;exitDx=0;exitDy=0;" edge="1" parent="1" source="rgN-U1eAydfDt8y_0uh5-49" target="rgN-U1eAydfDt8y_0uh5-51">
          <mxGeometry width="50" height="50" relative="1" as="geometry">
            <mxPoint x="520" y="-120" as="sourcePoint" />
            <mxPoint x="580" y="-130" as="targetPoint" />
          </mxGeometry>
        </mxCell>
        <mxCell id="rgN-U1eAydfDt8y_0uh5-54" value="Категорії" style="rounded=0;whiteSpace=wrap;html=1;" vertex="1" parent="1">
          <mxGeometry x="30" y="250" width="120" height="20" as="geometry" />
        </mxCell>
        <mxCell id="rgN-U1eAydfDt8y_0uh5-55" value="назва" style="ellipse;whiteSpace=wrap;html=1;" vertex="1" parent="1">
          <mxGeometry x="50" y="280" width="80" height="30" as="geometry" />
        </mxCell>
        <mxCell id="rgN-U1eAydfDt8y_0uh5-57" value="" style="endArrow=none;html=1;rounded=0;entryX=0.5;entryY=0;entryDx=0;entryDy=0;exitX=0.5;exitY=1;exitDx=0;exitDy=0;" edge="1" parent="1" source="rgN-U1eAydfDt8y_0uh5-54" target="rgN-U1eAydfDt8y_0uh5-55">
          <mxGeometry width="50" height="50" relative="1" as="geometry">
            <mxPoint x="130" y="320" as="sourcePoint" />
            <mxPoint x="162" y="334" as="targetPoint" />
          </mxGeometry>
        </mxCell>
        <mxCell id="rgN-U1eAydfDt8y_0uh5-58" value="" style="endArrow=none;html=1;rounded=0;entryX=0.5;entryY=1;entryDx=0;entryDy=0;exitX=0.5;exitY=0;exitDx=0;exitDy=0;" edge="1" parent="1" source="rgN-U1eAydfDt8y_0uh5-54" target="rgN-U1eAydfDt8y_0uh5-56">
          <mxGeometry width="50" height="50" relative="1" as="geometry">
            <mxPoint x="160" y="260" as="sourcePoint" />
            <mxPoint x="220" y="250" as="targetPoint" />
          </mxGeometry>
        </mxCell>
        <mxCell id="rgN-U1eAydfDt8y_0uh5-60" value="" style="endArrow=none;html=1;rounded=0;entryX=0.25;entryY=1;entryDx=0;entryDy=0;exitX=0.5;exitY=0;exitDx=0;exitDy=0;" edge="1" parent="1" source="rgN-U1eAydfDt8y_0uh5-54" target="rgN-U1eAydfDt8y_0uh5-245">
          <mxGeometry width="50" height="50" relative="1" as="geometry">
            <mxPoint y="200" as="sourcePoint" />
            <mxPoint x="160" y="90" as="targetPoint" />
          </mxGeometry>
        </mxCell>
        <mxCell id="rgN-U1eAydfDt8y_0uh5-61" value="∞" style="edgeLabel;html=1;align=center;verticalAlign=middle;resizable=0;points=[];labelBackgroundColor=none;" vertex="1" connectable="0" parent="rgN-U1eAydfDt8y_0uh5-60">
          <mxGeometry x="0.0695" y="-2" relative="1" as="geometry">
            <mxPoint x="-6" y="23" as="offset" />
          </mxGeometry>
        </mxCell>
        <mxCell id="rgN-U1eAydfDt8y_0uh5-56" value="&lt;p&gt;ідентифікатор категорії&lt;/p&gt;" style="ellipse;whiteSpace=wrap;html=1;" vertex="1" parent="1">
          <mxGeometry x="40" y="190" width="100" height="50" as="geometry" />
        </mxCell>
        <mxCell id="rgN-U1eAydfDt8y_0uh5-77" value="Користувачі" style="rounded=0;whiteSpace=wrap;html=1;" vertex="1" parent="1">
          <mxGeometry x="582" y="80" width="120" height="20" as="geometry" />
        </mxCell>
        <mxCell id="rgN-U1eAydfDt8y_0uh5-78" value="дата реєстраії" style="ellipse;whiteSpace=wrap;html=1;" vertex="1" parent="1">
          <mxGeometry x="766" y="40" width="80" height="30" as="geometry" />
        </mxCell>
        <mxCell id="rgN-U1eAydfDt8y_0uh5-79" value="про себе" style="ellipse;whiteSpace=wrap;html=1;" vertex="1" parent="1">
          <mxGeometry x="699" y="10" width="80" height="30" as="geometry" />
        </mxCell>
        <mxCell id="rgN-U1eAydfDt8y_0uh5-80" value="" style="endArrow=none;html=1;rounded=0;entryX=0.5;entryY=1;entryDx=0;entryDy=0;exitX=1;exitY=0;exitDx=0;exitDy=0;" edge="1" parent="1" source="rgN-U1eAydfDt8y_0uh5-77" target="rgN-U1eAydfDt8y_0uh5-79">
          <mxGeometry width="50" height="50" relative="1" as="geometry">
            <mxPoint x="740" y="130" as="sourcePoint" />
            <mxPoint x="790" y="80" as="targetPoint" />
          </mxGeometry>
        </mxCell>
        <mxCell id="rgN-U1eAydfDt8y_0uh5-83" value="" style="endArrow=none;html=1;rounded=0;exitX=0.5;exitY=0;exitDx=0;exitDy=0;entryX=0.5;entryY=1;entryDx=0;entryDy=0;" edge="1" parent="1" source="rgN-U1eAydfDt8y_0uh5-77" target="rgN-U1eAydfDt8y_0uh5-84">
          <mxGeometry width="50" height="50" relative="1" as="geometry">
            <mxPoint x="639.92" y="70" as="sourcePoint" />
            <mxPoint x="650" y="70" as="targetPoint" />
          </mxGeometry>
        </mxCell>
        <mxCell id="rgN-U1eAydfDt8y_0uh5-84" value="&lt;p&gt;ідентифікатор користувача&lt;br&gt;&lt;/p&gt;" style="ellipse;whiteSpace=wrap;html=1;" vertex="1" parent="1">
          <mxGeometry x="590" width="100" height="50" as="geometry" />
        </mxCell>
        <mxCell id="rgN-U1eAydfDt8y_0uh5-85" value="електронна пошта" style="ellipse;whiteSpace=wrap;html=1;" vertex="1" parent="1">
          <mxGeometry x="728" y="147.5" width="80" height="35" as="geometry" />
        </mxCell>
        <mxCell id="rgN-U1eAydfDt8y_0uh5-86" value="ім’я" style="ellipse;whiteSpace=wrap;html=1;" vertex="1" parent="1">
          <mxGeometry x="442" y="40" width="80" height="30" as="geometry" />
        </mxCell>
        <mxCell id="rgN-U1eAydfDt8y_0uh5-87" value="рівень" style="ellipse;whiteSpace=wrap;html=1;" vertex="1" parent="1">
          <mxGeometry x="502" y="10" width="80" height="30" as="geometry" />
        </mxCell>
        <mxCell id="rgN-U1eAydfDt8y_0uh5-88" value="" style="endArrow=none;html=1;rounded=0;entryX=0.5;entryY=1;entryDx=0;entryDy=0;exitX=0;exitY=0;exitDx=0;exitDy=0;" edge="1" parent="1" source="rgN-U1eAydfDt8y_0uh5-77" target="rgN-U1eAydfDt8y_0uh5-87">
          <mxGeometry width="50" height="50" relative="1" as="geometry">
            <mxPoint x="710" y="90" as="sourcePoint" />
            <mxPoint x="722" y="86" as="targetPoint" />
          </mxGeometry>
        </mxCell>
        <mxCell id="rgN-U1eAydfDt8y_0uh5-90" value="Чорний список токенів" style="rounded=0;whiteSpace=wrap;html=1;" vertex="1" parent="1">
          <mxGeometry x="92" y="670" width="130" height="20" as="geometry" />
        </mxCell>
        <mxCell id="rgN-U1eAydfDt8y_0uh5-91" value="токен" style="ellipse;whiteSpace=wrap;html=1;" vertex="1" parent="1">
          <mxGeometry x="117" y="700" width="80" height="30" as="geometry" />
        </mxCell>
        <mxCell id="rgN-U1eAydfDt8y_0uh5-92" value="ідентифікатор токену" style="ellipse;whiteSpace=wrap;html=1;" vertex="1" parent="1">
          <mxGeometry x="107" y="610" width="100" height="50" as="geometry" />
        </mxCell>
        <mxCell id="rgN-U1eAydfDt8y_0uh5-93" value="" style="endArrow=none;html=1;rounded=0;entryX=0.5;entryY=0;entryDx=0;entryDy=0;exitX=0.5;exitY=1;exitDx=0;exitDy=0;" edge="1" parent="1" source="rgN-U1eAydfDt8y_0uh5-90" target="rgN-U1eAydfDt8y_0uh5-91">
          <mxGeometry width="50" height="50" relative="1" as="geometry">
            <mxPoint x="197" y="740" as="sourcePoint" />
            <mxPoint x="229" y="754" as="targetPoint" />
          </mxGeometry>
        </mxCell>
        <mxCell id="rgN-U1eAydfDt8y_0uh5-94" value="" style="endArrow=none;html=1;rounded=0;entryX=0.5;entryY=1;entryDx=0;entryDy=0;exitX=0.5;exitY=0;exitDx=0;exitDy=0;" edge="1" parent="1" source="rgN-U1eAydfDt8y_0uh5-90" target="rgN-U1eAydfDt8y_0uh5-92">
          <mxGeometry width="50" height="50" relative="1" as="geometry">
            <mxPoint x="227" y="680" as="sourcePoint" />
            <mxPoint x="287" y="670" as="targetPoint" />
          </mxGeometry>
        </mxCell>
        <mxCell id="rgN-U1eAydfDt8y_0uh5-95" value="Файли" style="rounded=0;whiteSpace=wrap;html=1;" vertex="1" parent="1">
          <mxGeometry x="690" y="400" width="120" height="20" as="geometry" />
        </mxCell>
        <mxCell id="rgN-U1eAydfDt8y_0uh5-96" value="назва" style="ellipse;whiteSpace=wrap;html=1;" vertex="1" parent="1">
          <mxGeometry x="710" y="430" width="80" height="30" as="geometry" />
        </mxCell>
        <mxCell id="rgN-U1eAydfDt8y_0uh5-97" value="&lt;p&gt;ідентифікатор файлу&lt;/p&gt;" style="ellipse;whiteSpace=wrap;html=1;" vertex="1" parent="1">
          <mxGeometry x="700" y="340" width="100" height="50" as="geometry" />
        </mxCell>
        <mxCell id="rgN-U1eAydfDt8y_0uh5-98" value="" style="endArrow=none;html=1;rounded=0;entryX=0.5;entryY=0;entryDx=0;entryDy=0;exitX=0.5;exitY=1;exitDx=0;exitDy=0;" edge="1" parent="1" source="rgN-U1eAydfDt8y_0uh5-95" target="rgN-U1eAydfDt8y_0uh5-96">
          <mxGeometry width="50" height="50" relative="1" as="geometry">
            <mxPoint x="790" y="470" as="sourcePoint" />
            <mxPoint x="822" y="484" as="targetPoint" />
          </mxGeometry>
        </mxCell>
        <mxCell id="rgN-U1eAydfDt8y_0uh5-99" value="" style="endArrow=none;html=1;rounded=0;entryX=0.5;entryY=1;entryDx=0;entryDy=0;exitX=0.5;exitY=0;exitDx=0;exitDy=0;" edge="1" parent="1" source="rgN-U1eAydfDt8y_0uh5-95" target="rgN-U1eAydfDt8y_0uh5-97">
          <mxGeometry width="50" height="50" relative="1" as="geometry">
            <mxPoint x="820" y="410" as="sourcePoint" />
            <mxPoint x="880" y="400" as="targetPoint" />
          </mxGeometry>
        </mxCell>
        <mxCell id="rgN-U1eAydfDt8y_0uh5-105" value="Чати" style="rounded=0;whiteSpace=wrap;html=1;" vertex="1" parent="1">
          <mxGeometry x="920" y="580" width="120" height="20" as="geometry" />
        </mxCell>
        <mxCell id="rgN-U1eAydfDt8y_0uh5-107" value="&lt;p&gt;ідентифікатор чату&lt;/p&gt;" style="ellipse;whiteSpace=wrap;html=1;" vertex="1" parent="1">
          <mxGeometry x="930" y="520" width="100" height="50" as="geometry" />
        </mxCell>
        <mxCell id="rgN-U1eAydfDt8y_0uh5-109" value="" style="endArrow=none;html=1;rounded=0;entryX=0.5;entryY=1;entryDx=0;entryDy=0;exitX=0.5;exitY=0;exitDx=0;exitDy=0;" edge="1" parent="1" source="rgN-U1eAydfDt8y_0uh5-105" target="rgN-U1eAydfDt8y_0uh5-107">
          <mxGeometry width="50" height="50" relative="1" as="geometry">
            <mxPoint x="1050" y="590" as="sourcePoint" />
            <mxPoint x="1110" y="580" as="targetPoint" />
          </mxGeometry>
        </mxCell>
        <mxCell id="rgN-U1eAydfDt8y_0uh5-111" value="Відгуки" style="rounded=0;whiteSpace=wrap;html=1;" vertex="1" parent="1">
          <mxGeometry x="920" y="740" width="120" height="20" as="geometry" />
        </mxCell>
        <mxCell id="rgN-U1eAydfDt8y_0uh5-112" value="оцінка" style="ellipse;whiteSpace=wrap;html=1;" vertex="1" parent="1">
          <mxGeometry x="940" y="770" width="80" height="30" as="geometry" />
        </mxCell>
        <mxCell id="rgN-U1eAydfDt8y_0uh5-113" value="&lt;p&gt;ідентифікатор відгуку&lt;/p&gt;" style="ellipse;whiteSpace=wrap;html=1;" vertex="1" parent="1">
          <mxGeometry x="930" y="680" width="100" height="50" as="geometry" />
        </mxCell>
        <mxCell id="rgN-U1eAydfDt8y_0uh5-114" value="" style="endArrow=none;html=1;rounded=0;entryX=0.5;entryY=0;entryDx=0;entryDy=0;exitX=0.5;exitY=1;exitDx=0;exitDy=0;" edge="1" parent="1" source="rgN-U1eAydfDt8y_0uh5-111" target="rgN-U1eAydfDt8y_0uh5-112">
          <mxGeometry width="50" height="50" relative="1" as="geometry">
            <mxPoint x="1020" y="810" as="sourcePoint" />
            <mxPoint x="1052" y="824" as="targetPoint" />
          </mxGeometry>
        </mxCell>
        <mxCell id="rgN-U1eAydfDt8y_0uh5-115" value="" style="endArrow=none;html=1;rounded=0;entryX=0.5;entryY=1;entryDx=0;entryDy=0;exitX=0.5;exitY=0;exitDx=0;exitDy=0;" edge="1" parent="1" source="rgN-U1eAydfDt8y_0uh5-111" target="rgN-U1eAydfDt8y_0uh5-113">
          <mxGeometry width="50" height="50" relative="1" as="geometry">
            <mxPoint x="1050" y="750" as="sourcePoint" />
            <mxPoint x="1110" y="740" as="targetPoint" />
          </mxGeometry>
        </mxCell>
        <mxCell id="rgN-U1eAydfDt8y_0uh5-116" value="вміст" style="ellipse;whiteSpace=wrap;html=1;" vertex="1" parent="1">
          <mxGeometry x="830" y="735" width="80" height="30" as="geometry" />
        </mxCell>
        <mxCell id="rgN-U1eAydfDt8y_0uh5-118" value="" style="endArrow=none;html=1;rounded=0;entryX=0;entryY=0.5;entryDx=0;entryDy=0;exitX=1;exitY=0.5;exitDx=0;exitDy=0;" edge="1" parent="1" source="rgN-U1eAydfDt8y_0uh5-116" target="rgN-U1eAydfDt8y_0uh5-111">
          <mxGeometry width="50" height="50" relative="1" as="geometry">
            <mxPoint x="990" y="750" as="sourcePoint" />
            <mxPoint x="990" y="740" as="targetPoint" />
          </mxGeometry>
        </mxCell>
        <mxCell id="rgN-U1eAydfDt8y_0uh5-119" value="роль" style="ellipse;whiteSpace=wrap;html=1;fontStyle=4" vertex="1" parent="1">
          <mxGeometry x="442" y="75" width="80" height="30" as="geometry" />
        </mxCell>
        <mxCell id="rgN-U1eAydfDt8y_0uh5-120" value="аватар" style="ellipse;whiteSpace=wrap;html=1;fontStyle=4" vertex="1" parent="1">
          <mxGeometry x="442" y="110" width="80" height="30" as="geometry" />
        </mxCell>
        <mxCell id="rgN-U1eAydfDt8y_0uh5-121" value="нікнейм" style="ellipse;whiteSpace=wrap;html=1;" vertex="1" parent="1">
          <mxGeometry x="478" y="150" width="80" height="30" as="geometry" />
        </mxCell>
        <mxCell id="rgN-U1eAydfDt8y_0uh5-122" value="прізвище" style="ellipse;whiteSpace=wrap;html=1;" vertex="1" parent="1">
          <mxGeometry x="766" y="75" width="80" height="30" as="geometry" />
        </mxCell>
        <mxCell id="rgN-U1eAydfDt8y_0uh5-123" value="публічний ключ" style="ellipse;whiteSpace=wrap;html=1;" vertex="1" parent="1">
          <mxGeometry x="644" y="145" width="80" height="40" as="geometry" />
        </mxCell>
        <mxCell id="rgN-U1eAydfDt8y_0uh5-124" value="приватний ключ" style="ellipse;whiteSpace=wrap;html=1;" vertex="1" parent="1">
          <mxGeometry x="561" y="145" width="80" height="40" as="geometry" />
        </mxCell>
        <mxCell id="rgN-U1eAydfDt8y_0uh5-125" value="пароль" style="ellipse;whiteSpace=wrap;html=1;" vertex="1" parent="1">
          <mxGeometry x="766" y="110" width="80" height="30" as="geometry" />
        </mxCell>
        <mxCell id="rgN-U1eAydfDt8y_0uh5-126" value="" style="endArrow=none;html=1;rounded=0;entryX=1;entryY=0.5;entryDx=0;entryDy=0;exitX=0;exitY=0.5;exitDx=0;exitDy=0;" edge="1" parent="1" source="rgN-U1eAydfDt8y_0uh5-77" target="rgN-U1eAydfDt8y_0uh5-119">
          <mxGeometry width="50" height="50" relative="1" as="geometry">
            <mxPoint x="560" y="90" as="sourcePoint" />
            <mxPoint x="578" y="46" as="targetPoint" />
          </mxGeometry>
        </mxCell>
        <mxCell id="rgN-U1eAydfDt8y_0uh5-127" value="" style="endArrow=none;html=1;rounded=0;entryX=0;entryY=0.5;entryDx=0;entryDy=0;exitX=1;exitY=0.5;exitDx=0;exitDy=0;" edge="1" parent="1" source="rgN-U1eAydfDt8y_0uh5-77" target="rgN-U1eAydfDt8y_0uh5-122">
          <mxGeometry width="50" height="50" relative="1" as="geometry">
            <mxPoint x="710" y="90" as="sourcePoint" />
            <mxPoint x="722" y="46" as="targetPoint" />
          </mxGeometry>
        </mxCell>
        <mxCell id="rgN-U1eAydfDt8y_0uh5-128" value="" style="endArrow=none;html=1;rounded=0;entryX=0;entryY=0.5;entryDx=0;entryDy=0;exitX=1;exitY=0.25;exitDx=0;exitDy=0;" edge="1" parent="1" source="rgN-U1eAydfDt8y_0uh5-77" target="rgN-U1eAydfDt8y_0uh5-78">
          <mxGeometry width="50" height="50" relative="1" as="geometry">
            <mxPoint x="710" y="100" as="sourcePoint" />
            <mxPoint x="810" y="100" as="targetPoint" />
          </mxGeometry>
        </mxCell>
        <mxCell id="rgN-U1eAydfDt8y_0uh5-129" value="" style="endArrow=none;html=1;rounded=0;entryX=0;entryY=0.5;entryDx=0;entryDy=0;exitX=1;exitY=0.75;exitDx=0;exitDy=0;" edge="1" parent="1" source="rgN-U1eAydfDt8y_0uh5-77" target="rgN-U1eAydfDt8y_0uh5-125">
          <mxGeometry width="50" height="50" relative="1" as="geometry">
            <mxPoint x="710" y="95" as="sourcePoint" />
            <mxPoint x="822" y="76" as="targetPoint" />
          </mxGeometry>
        </mxCell>
        <mxCell id="rgN-U1eAydfDt8y_0uh5-130" value="" style="endArrow=none;html=1;rounded=0;entryX=0.5;entryY=0;entryDx=0;entryDy=0;exitX=1;exitY=1;exitDx=0;exitDy=0;" edge="1" parent="1" source="rgN-U1eAydfDt8y_0uh5-77" target="rgN-U1eAydfDt8y_0uh5-85">
          <mxGeometry width="50" height="50" relative="1" as="geometry">
            <mxPoint x="710" y="105" as="sourcePoint" />
            <mxPoint x="810" y="135" as="targetPoint" />
          </mxGeometry>
        </mxCell>
        <mxCell id="rgN-U1eAydfDt8y_0uh5-131" value="" style="endArrow=none;html=1;rounded=0;entryX=1;entryY=0.5;entryDx=0;entryDy=0;exitX=0;exitY=0.25;exitDx=0;exitDy=0;" edge="1" parent="1" source="rgN-U1eAydfDt8y_0uh5-77" target="rgN-U1eAydfDt8y_0uh5-86">
          <mxGeometry width="50" height="50" relative="1" as="geometry">
            <mxPoint x="570" y="80" as="sourcePoint" />
            <mxPoint x="578" y="46" as="targetPoint" />
          </mxGeometry>
        </mxCell>
        <mxCell id="rgN-U1eAydfDt8y_0uh5-132" value="" style="endArrow=none;html=1;rounded=0;entryX=1;entryY=0.5;entryDx=0;entryDy=0;exitX=0;exitY=0.75;exitDx=0;exitDy=0;" edge="1" parent="1" source="rgN-U1eAydfDt8y_0uh5-77" target="rgN-U1eAydfDt8y_0uh5-120">
          <mxGeometry width="50" height="50" relative="1" as="geometry">
            <mxPoint x="590" y="100" as="sourcePoint" />
            <mxPoint x="510" y="100" as="targetPoint" />
          </mxGeometry>
        </mxCell>
        <mxCell id="rgN-U1eAydfDt8y_0uh5-133" value="" style="endArrow=none;html=1;rounded=0;entryX=0.5;entryY=0;entryDx=0;entryDy=0;exitX=0;exitY=1;exitDx=0;exitDy=0;" edge="1" parent="1" source="rgN-U1eAydfDt8y_0uh5-77" target="rgN-U1eAydfDt8y_0uh5-121">
          <mxGeometry width="50" height="50" relative="1" as="geometry">
            <mxPoint x="590" y="105" as="sourcePoint" />
            <mxPoint x="510" y="135" as="targetPoint" />
          </mxGeometry>
        </mxCell>
        <mxCell id="rgN-U1eAydfDt8y_0uh5-134" value="" style="endArrow=none;html=1;rounded=0;exitX=0.5;exitY=0;exitDx=0;exitDy=0;entryX=0.25;entryY=1;entryDx=0;entryDy=0;" edge="1" parent="1" source="rgN-U1eAydfDt8y_0uh5-124" target="rgN-U1eAydfDt8y_0uh5-77">
          <mxGeometry width="50" height="50" relative="1" as="geometry">
            <mxPoint x="650" y="90" as="sourcePoint" />
            <mxPoint x="612" y="110" as="targetPoint" />
          </mxGeometry>
        </mxCell>
        <mxCell id="rgN-U1eAydfDt8y_0uh5-135" value="" style="endArrow=none;html=1;rounded=0;exitX=0.75;exitY=1;exitDx=0;exitDy=0;entryX=0.5;entryY=0;entryDx=0;entryDy=0;" edge="1" parent="1" source="rgN-U1eAydfDt8y_0uh5-77" target="rgN-U1eAydfDt8y_0uh5-123">
          <mxGeometry width="50" height="50" relative="1" as="geometry">
            <mxPoint x="650" y="90" as="sourcePoint" />
            <mxPoint x="650" y="60" as="targetPoint" />
          </mxGeometry>
        </mxCell>
        <mxCell id="rgN-U1eAydfDt8y_0uh5-136" value="Повідомлення чату" style="rounded=0;whiteSpace=wrap;html=1;" vertex="1" parent="1">
          <mxGeometry x="1030" y="80" width="120" height="20" as="geometry" />
        </mxCell>
        <mxCell id="rgN-U1eAydfDt8y_0uh5-137" value="&lt;u&gt;відправник&lt;/u&gt;" style="ellipse;whiteSpace=wrap;html=1;" vertex="1" parent="1">
          <mxGeometry x="1150" y="100" width="80" height="30" as="geometry" />
        </mxCell>
        <mxCell id="rgN-U1eAydfDt8y_0uh5-138" value="чат" style="ellipse;whiteSpace=wrap;html=1;fontStyle=4" vertex="1" parent="1">
          <mxGeometry x="1150" y="50" width="80" height="30" as="geometry" />
        </mxCell>
        <mxCell id="rgN-U1eAydfDt8y_0uh5-139" value="" style="endArrow=none;html=1;rounded=0;entryX=0;entryY=1;entryDx=0;entryDy=0;exitX=1;exitY=0;exitDx=0;exitDy=0;" edge="1" parent="1" source="rgN-U1eAydfDt8y_0uh5-136" target="rgN-U1eAydfDt8y_0uh5-138">
          <mxGeometry width="50" height="50" relative="1" as="geometry">
            <mxPoint x="1190" y="130" as="sourcePoint" />
            <mxPoint x="1240" y="80" as="targetPoint" />
          </mxGeometry>
        </mxCell>
        <mxCell id="rgN-U1eAydfDt8y_0uh5-140" value="" style="endArrow=none;html=1;rounded=0;entryX=0;entryY=0;entryDx=0;entryDy=0;exitX=1;exitY=1;exitDx=0;exitDy=0;" edge="1" parent="1" source="rgN-U1eAydfDt8y_0uh5-136" target="rgN-U1eAydfDt8y_0uh5-137">
          <mxGeometry width="50" height="50" relative="1" as="geometry">
            <mxPoint x="1170" y="120" as="sourcePoint" />
            <mxPoint x="1230" y="100" as="targetPoint" />
          </mxGeometry>
        </mxCell>
        <mxCell id="rgN-U1eAydfDt8y_0uh5-141" value="" style="endArrow=none;html=1;rounded=0;entryX=0.5;entryY=0;entryDx=0;entryDy=0;exitX=0.5;exitY=1;exitDx=0;exitDy=0;" edge="1" parent="1" source="rgN-U1eAydfDt8y_0uh5-136" target="rgN-U1eAydfDt8y_0uh5-144">
          <mxGeometry width="50" height="50" relative="1" as="geometry">
            <mxPoint x="1130" y="150" as="sourcePoint" />
            <mxPoint x="1162" y="164" as="targetPoint" />
          </mxGeometry>
        </mxCell>
        <mxCell id="rgN-U1eAydfDt8y_0uh5-142" value="" style="endArrow=none;html=1;rounded=0;exitX=0.5;exitY=0;exitDx=0;exitDy=0;entryX=0.5;entryY=1;entryDx=0;entryDy=0;" edge="1" parent="1" source="rgN-U1eAydfDt8y_0uh5-136" target="rgN-U1eAydfDt8y_0uh5-143">
          <mxGeometry width="50" height="50" relative="1" as="geometry">
            <mxPoint x="1089.92" y="70" as="sourcePoint" />
            <mxPoint x="1100" y="70" as="targetPoint" />
          </mxGeometry>
        </mxCell>
        <mxCell id="rgN-U1eAydfDt8y_0uh5-143" value="ідентифікатор повідомлення чату" style="ellipse;whiteSpace=wrap;html=1;" vertex="1" parent="1">
          <mxGeometry x="1035" y="10" width="110" height="60" as="geometry" />
        </mxCell>
        <mxCell id="rgN-U1eAydfDt8y_0uh5-144" value="вміст" style="ellipse;whiteSpace=wrap;html=1;" vertex="1" parent="1">
          <mxGeometry x="1050" y="110" width="80" height="30" as="geometry" />
        </mxCell>
        <mxCell id="rgN-U1eAydfDt8y_0uh5-145" value="дата і час відправлення" style="ellipse;whiteSpace=wrap;html=1;" vertex="1" parent="1">
          <mxGeometry x="930" y="70" width="90" height="40" as="geometry" />
        </mxCell>
        <mxCell id="rgN-U1eAydfDt8y_0uh5-148" value="" style="endArrow=none;html=1;rounded=0;entryX=1;entryY=0.5;entryDx=0;entryDy=0;exitX=0;exitY=0.5;exitDx=0;exitDy=0;" edge="1" parent="1" source="rgN-U1eAydfDt8y_0uh5-136" target="rgN-U1eAydfDt8y_0uh5-145">
          <mxGeometry width="50" height="50" relative="1" as="geometry">
            <mxPoint x="1040" y="90" as="sourcePoint" />
            <mxPoint x="1028" y="86" as="targetPoint" />
          </mxGeometry>
        </mxCell>
        <mxCell id="rgN-U1eAydfDt8y_0uh5-190" value="Замовлення" style="rounded=0;whiteSpace=wrap;html=1;" vertex="1" parent="1">
          <mxGeometry x="1288" y="310" width="120" height="20" as="geometry" />
        </mxCell>
        <mxCell id="rgN-U1eAydfDt8y_0uh5-191" value="дата завершення" style="ellipse;whiteSpace=wrap;html=1;" vertex="1" parent="1">
          <mxGeometry x="1474" y="270" width="80" height="30" as="geometry" />
        </mxCell>
        <mxCell id="rgN-U1eAydfDt8y_0uh5-192" value="дата створення" style="ellipse;whiteSpace=wrap;html=1;" vertex="1" parent="1">
          <mxGeometry x="1407" y="240" width="80" height="30" as="geometry" />
        </mxCell>
        <mxCell id="rgN-U1eAydfDt8y_0uh5-193" value="" style="endArrow=none;html=1;rounded=0;entryX=0.5;entryY=1;entryDx=0;entryDy=0;exitX=1;exitY=0;exitDx=0;exitDy=0;" edge="1" parent="1" source="rgN-U1eAydfDt8y_0uh5-190" target="rgN-U1eAydfDt8y_0uh5-192">
          <mxGeometry width="50" height="50" relative="1" as="geometry">
            <mxPoint x="1448" y="360" as="sourcePoint" />
            <mxPoint x="1498" y="310" as="targetPoint" />
          </mxGeometry>
        </mxCell>
        <mxCell id="rgN-U1eAydfDt8y_0uh5-194" value="" style="endArrow=none;html=1;rounded=0;exitX=0.5;exitY=0;exitDx=0;exitDy=0;entryX=0.5;entryY=1;entryDx=0;entryDy=0;" edge="1" parent="1" source="rgN-U1eAydfDt8y_0uh5-190" target="rgN-U1eAydfDt8y_0uh5-195">
          <mxGeometry width="50" height="50" relative="1" as="geometry">
            <mxPoint x="1347.92" y="300" as="sourcePoint" />
            <mxPoint x="1358" y="300" as="targetPoint" />
          </mxGeometry>
        </mxCell>
        <mxCell id="rgN-U1eAydfDt8y_0uh5-195" value="&lt;p&gt;ідентифікатор замовлення&lt;/p&gt;" style="ellipse;whiteSpace=wrap;html=1;" vertex="1" parent="1">
          <mxGeometry x="1298" y="230" width="100" height="50" as="geometry" />
        </mxCell>
        <mxCell id="rgN-U1eAydfDt8y_0uh5-196" value="&lt;u&gt;сервіс&lt;/u&gt;" style="ellipse;whiteSpace=wrap;html=1;" vertex="1" parent="1">
          <mxGeometry x="1407" y="359.5" width="80" height="35" as="geometry" />
        </mxCell>
        <mxCell id="rgN-U1eAydfDt8y_0uh5-197" value="&lt;u&gt;чат&lt;/u&gt;" style="ellipse;whiteSpace=wrap;html=1;" vertex="1" parent="1">
          <mxGeometry x="1150" y="270" width="80" height="30" as="geometry" />
        </mxCell>
        <mxCell id="rgN-U1eAydfDt8y_0uh5-199" value="" style="endArrow=none;html=1;rounded=0;entryX=0.5;entryY=1;entryDx=0;entryDy=0;exitX=0;exitY=0;exitDx=0;exitDy=0;" edge="1" parent="1" source="rgN-U1eAydfDt8y_0uh5-190" target="rgN-U1eAydfDt8y_0uh5-217">
          <mxGeometry width="50" height="50" relative="1" as="geometry">
            <mxPoint x="1418" y="320" as="sourcePoint" />
            <mxPoint x="1240" y="270" as="targetPoint" />
          </mxGeometry>
        </mxCell>
        <mxCell id="rgN-U1eAydfDt8y_0uh5-200" value="фрілансер" style="ellipse;whiteSpace=wrap;html=1;fontStyle=4" vertex="1" parent="1">
          <mxGeometry x="1150" y="305" width="80" height="30" as="geometry" />
        </mxCell>
        <mxCell id="rgN-U1eAydfDt8y_0uh5-201" value="клієнт" style="ellipse;whiteSpace=wrap;html=1;fontStyle=4" vertex="1" parent="1">
          <mxGeometry x="1150" y="340" width="80" height="30" as="geometry" />
        </mxCell>
        <mxCell id="rgN-U1eAydfDt8y_0uh5-202" value="&lt;u&gt;відгук&lt;/u&gt;" style="ellipse;whiteSpace=wrap;html=1;" vertex="1" parent="1">
          <mxGeometry x="1210" y="364.5" width="80" height="30" as="geometry" />
        </mxCell>
        <mxCell id="rgN-U1eAydfDt8y_0uh5-203" value="&lt;u&gt;статус&lt;/u&gt;" style="ellipse;whiteSpace=wrap;html=1;" vertex="1" parent="1">
          <mxGeometry x="1474" y="305" width="80" height="30" as="geometry" />
        </mxCell>
        <mxCell id="rgN-U1eAydfDt8y_0uh5-205" value="повідомлення клієнта" style="ellipse;whiteSpace=wrap;html=1;" vertex="1" parent="1">
          <mxGeometry x="1302" y="359.5" width="92" height="45.5" as="geometry" />
        </mxCell>
        <mxCell id="rgN-U1eAydfDt8y_0uh5-206" value="&lt;u&gt;пакет сервісу&lt;br&gt;&lt;/u&gt;" style="ellipse;whiteSpace=wrap;html=1;" vertex="1" parent="1">
          <mxGeometry x="1474" y="340" width="80" height="30" as="geometry" />
        </mxCell>
        <mxCell id="rgN-U1eAydfDt8y_0uh5-207" value="" style="endArrow=none;html=1;rounded=0;entryX=1;entryY=0.5;entryDx=0;entryDy=0;exitX=0;exitY=0.5;exitDx=0;exitDy=0;" edge="1" parent="1" source="rgN-U1eAydfDt8y_0uh5-190" target="rgN-U1eAydfDt8y_0uh5-200">
          <mxGeometry width="50" height="50" relative="1" as="geometry">
            <mxPoint x="1268" y="320" as="sourcePoint" />
            <mxPoint x="1286" y="276" as="targetPoint" />
          </mxGeometry>
        </mxCell>
        <mxCell id="rgN-U1eAydfDt8y_0uh5-208" value="" style="endArrow=none;html=1;rounded=0;entryX=0;entryY=0.5;entryDx=0;entryDy=0;exitX=1;exitY=0.5;exitDx=0;exitDy=0;" edge="1" parent="1" source="rgN-U1eAydfDt8y_0uh5-190" target="rgN-U1eAydfDt8y_0uh5-203">
          <mxGeometry width="50" height="50" relative="1" as="geometry">
            <mxPoint x="1418" y="320" as="sourcePoint" />
            <mxPoint x="1430" y="276" as="targetPoint" />
          </mxGeometry>
        </mxCell>
        <mxCell id="rgN-U1eAydfDt8y_0uh5-209" value="" style="endArrow=none;html=1;rounded=0;entryX=0;entryY=0.5;entryDx=0;entryDy=0;exitX=1;exitY=0.25;exitDx=0;exitDy=0;" edge="1" parent="1" source="rgN-U1eAydfDt8y_0uh5-190" target="rgN-U1eAydfDt8y_0uh5-191">
          <mxGeometry width="50" height="50" relative="1" as="geometry">
            <mxPoint x="1418" y="330" as="sourcePoint" />
            <mxPoint x="1518" y="330" as="targetPoint" />
          </mxGeometry>
        </mxCell>
        <mxCell id="rgN-U1eAydfDt8y_0uh5-210" value="" style="endArrow=none;html=1;rounded=0;entryX=0;entryY=0.5;entryDx=0;entryDy=0;exitX=1;exitY=0.75;exitDx=0;exitDy=0;" edge="1" parent="1" source="rgN-U1eAydfDt8y_0uh5-190" target="rgN-U1eAydfDt8y_0uh5-206">
          <mxGeometry width="50" height="50" relative="1" as="geometry">
            <mxPoint x="1418" y="325" as="sourcePoint" />
            <mxPoint x="1530" y="306" as="targetPoint" />
          </mxGeometry>
        </mxCell>
        <mxCell id="rgN-U1eAydfDt8y_0uh5-211" value="" style="endArrow=none;html=1;rounded=0;entryX=0.5;entryY=0;entryDx=0;entryDy=0;exitX=1;exitY=1;exitDx=0;exitDy=0;" edge="1" parent="1" source="rgN-U1eAydfDt8y_0uh5-190" target="rgN-U1eAydfDt8y_0uh5-196">
          <mxGeometry width="50" height="50" relative="1" as="geometry">
            <mxPoint x="1418" y="335" as="sourcePoint" />
            <mxPoint x="1518" y="365" as="targetPoint" />
          </mxGeometry>
        </mxCell>
        <mxCell id="rgN-U1eAydfDt8y_0uh5-212" value="" style="endArrow=none;html=1;rounded=0;entryX=1;entryY=0.5;entryDx=0;entryDy=0;exitX=0;exitY=0.25;exitDx=0;exitDy=0;" edge="1" parent="1" source="rgN-U1eAydfDt8y_0uh5-190" target="rgN-U1eAydfDt8y_0uh5-197">
          <mxGeometry width="50" height="50" relative="1" as="geometry">
            <mxPoint x="1278" y="310" as="sourcePoint" />
            <mxPoint x="1286" y="276" as="targetPoint" />
          </mxGeometry>
        </mxCell>
        <mxCell id="rgN-U1eAydfDt8y_0uh5-213" value="" style="endArrow=none;html=1;rounded=0;entryX=1;entryY=0.5;entryDx=0;entryDy=0;exitX=0;exitY=0.75;exitDx=0;exitDy=0;" edge="1" parent="1" source="rgN-U1eAydfDt8y_0uh5-190" target="rgN-U1eAydfDt8y_0uh5-201">
          <mxGeometry width="50" height="50" relative="1" as="geometry">
            <mxPoint x="1298" y="330" as="sourcePoint" />
            <mxPoint x="1218" y="330" as="targetPoint" />
          </mxGeometry>
        </mxCell>
        <mxCell id="rgN-U1eAydfDt8y_0uh5-214" value="" style="endArrow=none;html=1;rounded=0;entryX=0.5;entryY=0;entryDx=0;entryDy=0;exitX=0;exitY=1;exitDx=0;exitDy=0;" edge="1" parent="1" source="rgN-U1eAydfDt8y_0uh5-190" target="rgN-U1eAydfDt8y_0uh5-202">
          <mxGeometry width="50" height="50" relative="1" as="geometry">
            <mxPoint x="1298" y="335" as="sourcePoint" />
            <mxPoint x="1218" y="365" as="targetPoint" />
          </mxGeometry>
        </mxCell>
        <mxCell id="rgN-U1eAydfDt8y_0uh5-215" value="" style="endArrow=none;html=1;rounded=0;exitX=0.5;exitY=0;exitDx=0;exitDy=0;entryX=0.5;entryY=1;entryDx=0;entryDy=0;" edge="1" parent="1" source="rgN-U1eAydfDt8y_0uh5-205" target="rgN-U1eAydfDt8y_0uh5-190">
          <mxGeometry width="50" height="50" relative="1" as="geometry">
            <mxPoint x="1358" y="320" as="sourcePoint" />
            <mxPoint x="1320" y="340" as="targetPoint" />
          </mxGeometry>
        </mxCell>
        <mxCell id="rgN-U1eAydfDt8y_0uh5-217" value="&lt;u&gt;платіж&lt;/u&gt;" style="ellipse;whiteSpace=wrap;html=1;" vertex="1" parent="1">
          <mxGeometry x="1210" y="240" width="80" height="30" as="geometry" />
        </mxCell>
        <mxCell id="rgN-U1eAydfDt8y_0uh5-218" value="Пакети сервісів" style="rounded=0;whiteSpace=wrap;html=1;" vertex="1" parent="1">
          <mxGeometry x="302" y="240" width="120" height="20" as="geometry" />
        </mxCell>
        <mxCell id="rgN-U1eAydfDt8y_0uh5-219" value="ціна" style="ellipse;whiteSpace=wrap;html=1;" vertex="1" parent="1">
          <mxGeometry x="422" y="260" width="80" height="30" as="geometry" />
        </mxCell>
        <mxCell id="rgN-U1eAydfDt8y_0uh5-220" value="опис" style="ellipse;whiteSpace=wrap;html=1;" vertex="1" parent="1">
          <mxGeometry x="422" y="210" width="80" height="30" as="geometry" />
        </mxCell>
        <mxCell id="rgN-U1eAydfDt8y_0uh5-221" value="" style="endArrow=none;html=1;rounded=0;entryX=0;entryY=1;entryDx=0;entryDy=0;exitX=1;exitY=0;exitDx=0;exitDy=0;" edge="1" parent="1" source="rgN-U1eAydfDt8y_0uh5-218" target="rgN-U1eAydfDt8y_0uh5-220">
          <mxGeometry width="50" height="50" relative="1" as="geometry">
            <mxPoint x="462" y="290" as="sourcePoint" />
            <mxPoint x="512" y="240" as="targetPoint" />
          </mxGeometry>
        </mxCell>
        <mxCell id="rgN-U1eAydfDt8y_0uh5-222" value="" style="endArrow=none;html=1;rounded=0;entryX=0;entryY=0;entryDx=0;entryDy=0;exitX=1;exitY=1;exitDx=0;exitDy=0;" edge="1" parent="1" source="rgN-U1eAydfDt8y_0uh5-218" target="rgN-U1eAydfDt8y_0uh5-219">
          <mxGeometry width="50" height="50" relative="1" as="geometry">
            <mxPoint x="442" y="280" as="sourcePoint" />
            <mxPoint x="502" y="260" as="targetPoint" />
          </mxGeometry>
        </mxCell>
        <mxCell id="rgN-U1eAydfDt8y_0uh5-223" value="" style="endArrow=none;html=1;rounded=0;entryX=0.5;entryY=0;entryDx=0;entryDy=0;exitX=0.5;exitY=1;exitDx=0;exitDy=0;" edge="1" parent="1" source="rgN-U1eAydfDt8y_0uh5-218" target="rgN-U1eAydfDt8y_0uh5-226">
          <mxGeometry width="50" height="50" relative="1" as="geometry">
            <mxPoint x="402" y="310" as="sourcePoint" />
            <mxPoint x="434" y="324" as="targetPoint" />
          </mxGeometry>
        </mxCell>
        <mxCell id="rgN-U1eAydfDt8y_0uh5-224" value="" style="endArrow=none;html=1;rounded=0;exitX=0.5;exitY=0;exitDx=0;exitDy=0;entryX=0.5;entryY=1;entryDx=0;entryDy=0;" edge="1" parent="1" source="rgN-U1eAydfDt8y_0uh5-218" target="rgN-U1eAydfDt8y_0uh5-225">
          <mxGeometry width="50" height="50" relative="1" as="geometry">
            <mxPoint x="361.9200000000001" y="230" as="sourcePoint" />
            <mxPoint x="372" y="230" as="targetPoint" />
          </mxGeometry>
        </mxCell>
        <mxCell id="rgN-U1eAydfDt8y_0uh5-225" value="&lt;p&gt;ідентифікатор пакета&lt;br&gt;&lt;/p&gt;" style="ellipse;whiteSpace=wrap;html=1;" vertex="1" parent="1">
          <mxGeometry x="312" y="180" width="100" height="50" as="geometry" />
        </mxCell>
        <mxCell id="rgN-U1eAydfDt8y_0uh5-226" value="кількість днів для доставки" style="ellipse;whiteSpace=wrap;html=1;" vertex="1" parent="1">
          <mxGeometry x="309.5" y="270" width="105" height="50" as="geometry" />
        </mxCell>
        <mxCell id="rgN-U1eAydfDt8y_0uh5-227" value="заголовок" style="ellipse;whiteSpace=wrap;html=1;" vertex="1" parent="1">
          <mxGeometry x="222" y="260" width="80" height="30" as="geometry" />
        </mxCell>
        <mxCell id="rgN-U1eAydfDt8y_0uh5-228" value="&lt;u&gt;сервіс&lt;/u&gt;" style="ellipse;whiteSpace=wrap;html=1;" vertex="1" parent="1">
          <mxGeometry x="222" y="210" width="80" height="30" as="geometry" />
        </mxCell>
        <mxCell id="rgN-U1eAydfDt8y_0uh5-229" value="" style="endArrow=none;html=1;rounded=0;entryX=1;entryY=1;entryDx=0;entryDy=0;exitX=0;exitY=0;exitDx=0;exitDy=0;" edge="1" parent="1" source="rgN-U1eAydfDt8y_0uh5-218" target="rgN-U1eAydfDt8y_0uh5-228">
          <mxGeometry width="50" height="50" relative="1" as="geometry">
            <mxPoint x="432" y="250" as="sourcePoint" />
            <mxPoint x="444" y="246" as="targetPoint" />
          </mxGeometry>
        </mxCell>
        <mxCell id="rgN-U1eAydfDt8y_0uh5-230" value="" style="endArrow=none;html=1;rounded=0;entryX=1;entryY=0;entryDx=0;entryDy=0;exitX=0;exitY=1;exitDx=0;exitDy=0;" edge="1" parent="1" source="rgN-U1eAydfDt8y_0uh5-218" target="rgN-U1eAydfDt8y_0uh5-227">
          <mxGeometry width="50" height="50" relative="1" as="geometry">
            <mxPoint x="312" y="250" as="sourcePoint" />
            <mxPoint x="300" y="246" as="targetPoint" />
          </mxGeometry>
        </mxCell>
        <mxCell id="rgN-U1eAydfDt8y_0uh5-231" value="Відповіді на запитання замовлення " style="rounded=0;whiteSpace=wrap;html=1;" vertex="1" parent="1">
          <mxGeometry x="1648" y="650" width="132" height="30" as="geometry" />
        </mxCell>
        <mxCell id="rgN-U1eAydfDt8y_0uh5-233" value="&lt;u&gt;запитання&lt;/u&gt;" style="ellipse;whiteSpace=wrap;html=1;" vertex="1" parent="1">
          <mxGeometry x="1717" y="600" width="80" height="30" as="geometry" />
        </mxCell>
        <mxCell id="rgN-U1eAydfDt8y_0uh5-234" value="" style="endArrow=none;html=1;rounded=0;entryX=0.5;entryY=1;entryDx=0;entryDy=0;exitX=0.75;exitY=0;exitDx=0;exitDy=0;" edge="1" parent="1" source="rgN-U1eAydfDt8y_0uh5-231" target="rgN-U1eAydfDt8y_0uh5-233">
          <mxGeometry width="50" height="50" relative="1" as="geometry">
            <mxPoint x="1808" y="700" as="sourcePoint" />
            <mxPoint x="1858" y="650" as="targetPoint" />
          </mxGeometry>
        </mxCell>
        <mxCell id="rgN-U1eAydfDt8y_0uh5-237" value="" style="endArrow=none;html=1;rounded=0;exitX=0.75;exitY=1;exitDx=0;exitDy=0;entryX=0.5;entryY=0;entryDx=0;entryDy=0;" edge="1" parent="1" source="rgN-U1eAydfDt8y_0uh5-231" target="rgN-U1eAydfDt8y_0uh5-238">
          <mxGeometry width="50" height="50" relative="1" as="geometry">
            <mxPoint x="1707.92" y="640" as="sourcePoint" />
            <mxPoint x="1718" y="640" as="targetPoint" />
          </mxGeometry>
        </mxCell>
        <mxCell id="rgN-U1eAydfDt8y_0uh5-238" value="ідентифікатор відповіді на запитання" style="ellipse;whiteSpace=wrap;html=1;" vertex="1" parent="1">
          <mxGeometry x="1712" y="690" width="114" height="60" as="geometry" />
        </mxCell>
        <mxCell id="rgN-U1eAydfDt8y_0uh5-240" value="&lt;u&gt;замовлення&lt;/u&gt;" style="ellipse;whiteSpace=wrap;html=1;" vertex="1" parent="1">
          <mxGeometry x="1620" y="700" width="80" height="30" as="geometry" />
        </mxCell>
        <mxCell id="rgN-U1eAydfDt8y_0uh5-241" value="вміст" style="ellipse;whiteSpace=wrap;html=1;" vertex="1" parent="1">
          <mxGeometry x="1632" y="600" width="80" height="30" as="geometry" />
        </mxCell>
        <mxCell id="rgN-U1eAydfDt8y_0uh5-242" value="" style="endArrow=none;html=1;rounded=0;entryX=0.5;entryY=1;entryDx=0;entryDy=0;exitX=0.25;exitY=0;exitDx=0;exitDy=0;" edge="1" parent="1" source="rgN-U1eAydfDt8y_0uh5-231" target="rgN-U1eAydfDt8y_0uh5-241">
          <mxGeometry width="50" height="50" relative="1" as="geometry">
            <mxPoint x="1778" y="660" as="sourcePoint" />
            <mxPoint x="1790" y="656" as="targetPoint" />
          </mxGeometry>
        </mxCell>
        <mxCell id="rgN-U1eAydfDt8y_0uh5-243" value="" style="endArrow=none;html=1;rounded=0;entryX=0.5;entryY=0;entryDx=0;entryDy=0;exitX=0.25;exitY=1;exitDx=0;exitDy=0;" edge="1" parent="1" source="rgN-U1eAydfDt8y_0uh5-231" target="rgN-U1eAydfDt8y_0uh5-240">
          <mxGeometry width="50" height="50" relative="1" as="geometry">
            <mxPoint x="1658" y="660" as="sourcePoint" />
            <mxPoint x="1646" y="656" as="targetPoint" />
          </mxGeometry>
        </mxCell>
        <mxCell id="rgN-U1eAydfDt8y_0uh5-245" value="Сервіси" style="rounded=0;whiteSpace=wrap;html=1;" vertex="1" parent="1">
          <mxGeometry x="130" y="30" width="120" height="20" as="geometry" />
        </mxCell>
        <mxCell id="rgN-U1eAydfDt8y_0uh5-246" value="дата створення" style="ellipse;whiteSpace=wrap;html=1;" vertex="1" parent="1">
          <mxGeometry x="250" y="50" width="80" height="30" as="geometry" />
        </mxCell>
        <mxCell id="rgN-U1eAydfDt8y_0uh5-247" value="опис" style="ellipse;whiteSpace=wrap;html=1;" vertex="1" parent="1">
          <mxGeometry x="250" width="80" height="30" as="geometry" />
        </mxCell>
        <mxCell id="rgN-U1eAydfDt8y_0uh5-248" value="" style="endArrow=none;html=1;rounded=0;entryX=0;entryY=1;entryDx=0;entryDy=0;exitX=1;exitY=0;exitDx=0;exitDy=0;" edge="1" parent="1" source="rgN-U1eAydfDt8y_0uh5-245" target="rgN-U1eAydfDt8y_0uh5-247">
          <mxGeometry width="50" height="50" relative="1" as="geometry">
            <mxPoint x="290" y="80" as="sourcePoint" />
            <mxPoint x="340" y="30" as="targetPoint" />
          </mxGeometry>
        </mxCell>
        <mxCell id="rgN-U1eAydfDt8y_0uh5-249" value="" style="endArrow=none;html=1;rounded=0;entryX=0;entryY=0;entryDx=0;entryDy=0;exitX=1;exitY=1;exitDx=0;exitDy=0;" edge="1" parent="1" source="rgN-U1eAydfDt8y_0uh5-245" target="rgN-U1eAydfDt8y_0uh5-246">
          <mxGeometry width="50" height="50" relative="1" as="geometry">
            <mxPoint x="270" y="70" as="sourcePoint" />
            <mxPoint x="330" y="50" as="targetPoint" />
          </mxGeometry>
        </mxCell>
        <mxCell id="rgN-U1eAydfDt8y_0uh5-250" value="" style="endArrow=none;html=1;rounded=0;entryX=0.5;entryY=0;entryDx=0;entryDy=0;exitX=0.5;exitY=1;exitDx=0;exitDy=0;" edge="1" parent="1" source="rgN-U1eAydfDt8y_0uh5-245" target="rgN-U1eAydfDt8y_0uh5-253">
          <mxGeometry width="50" height="50" relative="1" as="geometry">
            <mxPoint x="230" y="100" as="sourcePoint" />
            <mxPoint x="262" y="114" as="targetPoint" />
          </mxGeometry>
        </mxCell>
        <mxCell id="rgN-U1eAydfDt8y_0uh5-251" value="" style="endArrow=none;html=1;rounded=0;exitX=0.5;exitY=0;exitDx=0;exitDy=0;entryX=0.5;entryY=1;entryDx=0;entryDy=0;" edge="1" parent="1" source="rgN-U1eAydfDt8y_0uh5-245" target="rgN-U1eAydfDt8y_0uh5-252">
          <mxGeometry width="50" height="50" relative="1" as="geometry">
            <mxPoint x="189.91999999999996" y="20" as="sourcePoint" />
            <mxPoint x="200" y="20" as="targetPoint" />
          </mxGeometry>
        </mxCell>
        <mxCell id="rgN-U1eAydfDt8y_0uh5-252" value="&lt;p&gt;ідентифікатор сервісу&lt;/p&gt;" style="ellipse;whiteSpace=wrap;html=1;" vertex="1" parent="1">
          <mxGeometry x="140" y="-30" width="100" height="50" as="geometry" />
        </mxCell>
        <mxCell id="rgN-U1eAydfDt8y_0uh5-253" value="заголовок" style="ellipse;whiteSpace=wrap;html=1;" vertex="1" parent="1">
          <mxGeometry x="150" y="60" width="80" height="30" as="geometry" />
        </mxCell>
        <mxCell id="rgN-U1eAydfDt8y_0uh5-254" value="&lt;u&gt;фрілансер&lt;/u&gt;" style="ellipse;whiteSpace=wrap;html=1;" vertex="1" parent="1">
          <mxGeometry x="50" y="50" width="80" height="30" as="geometry" />
        </mxCell>
        <mxCell id="rgN-U1eAydfDt8y_0uh5-255" value="&lt;u&gt;категорія&lt;/u&gt;" style="ellipse;whiteSpace=wrap;html=1;" vertex="1" parent="1">
          <mxGeometry x="50" width="80" height="30" as="geometry" />
        </mxCell>
        <mxCell id="rgN-U1eAydfDt8y_0uh5-256" value="" style="endArrow=none;html=1;rounded=0;entryX=1;entryY=1;entryDx=0;entryDy=0;exitX=0;exitY=0;exitDx=0;exitDy=0;" edge="1" parent="1" source="rgN-U1eAydfDt8y_0uh5-245" target="rgN-U1eAydfDt8y_0uh5-255">
          <mxGeometry width="50" height="50" relative="1" as="geometry">
            <mxPoint x="260" y="40" as="sourcePoint" />
            <mxPoint x="272" y="36" as="targetPoint" />
          </mxGeometry>
        </mxCell>
        <mxCell id="rgN-U1eAydfDt8y_0uh5-257" value="" style="endArrow=none;html=1;rounded=0;entryX=1;entryY=0;entryDx=0;entryDy=0;exitX=0;exitY=1;exitDx=0;exitDy=0;" edge="1" parent="1" source="rgN-U1eAydfDt8y_0uh5-245" target="rgN-U1eAydfDt8y_0uh5-254">
          <mxGeometry width="50" height="50" relative="1" as="geometry">
            <mxPoint x="140" y="40" as="sourcePoint" />
            <mxPoint x="128" y="36" as="targetPoint" />
          </mxGeometry>
        </mxCell>
        <mxCell id="rgN-U1eAydfDt8y_0uh5-258" value="Запитання на замовлення" style="rounded=0;whiteSpace=wrap;html=1;" vertex="1" parent="1">
          <mxGeometry x="1338" y="620" width="132" height="30" as="geometry" />
        </mxCell>
        <mxCell id="rgN-U1eAydfDt8y_0uh5-261" value="" style="endArrow=none;html=1;rounded=0;exitX=0.75;exitY=1;exitDx=0;exitDy=0;entryX=0.5;entryY=0;entryDx=0;entryDy=0;" edge="1" parent="1" source="rgN-U1eAydfDt8y_0uh5-258" target="rgN-U1eAydfDt8y_0uh5-284">
          <mxGeometry width="50" height="50" relative="1" as="geometry">
            <mxPoint x="1397.92" y="610" as="sourcePoint" />
            <mxPoint x="1459" y="660" as="targetPoint" />
          </mxGeometry>
        </mxCell>
        <mxCell id="rgN-U1eAydfDt8y_0uh5-263" value="&lt;u&gt;замовлення&lt;/u&gt;" style="ellipse;whiteSpace=wrap;html=1;" vertex="1" parent="1">
          <mxGeometry x="1320" y="670" width="80" height="30" as="geometry" />
        </mxCell>
        <mxCell id="rgN-U1eAydfDt8y_0uh5-264" value="ідентифікатор запитання" style="ellipse;whiteSpace=wrap;html=1;" vertex="1" parent="1">
          <mxGeometry x="1352" y="560" width="104" height="50" as="geometry" />
        </mxCell>
        <mxCell id="rgN-U1eAydfDt8y_0uh5-265" value="" style="endArrow=none;html=1;rounded=0;entryX=0.5;entryY=1;entryDx=0;entryDy=0;exitX=0.5;exitY=0;exitDx=0;exitDy=0;" edge="1" parent="1" source="rgN-U1eAydfDt8y_0uh5-258" target="rgN-U1eAydfDt8y_0uh5-264">
          <mxGeometry width="50" height="50" relative="1" as="geometry">
            <mxPoint x="1468" y="630" as="sourcePoint" />
            <mxPoint x="1480" y="626" as="targetPoint" />
          </mxGeometry>
        </mxCell>
        <mxCell id="rgN-U1eAydfDt8y_0uh5-266" value="" style="endArrow=none;html=1;rounded=0;entryX=0.5;entryY=0;entryDx=0;entryDy=0;exitX=0.25;exitY=1;exitDx=0;exitDy=0;" edge="1" parent="1" source="rgN-U1eAydfDt8y_0uh5-258" target="rgN-U1eAydfDt8y_0uh5-263">
          <mxGeometry width="50" height="50" relative="1" as="geometry">
            <mxPoint x="1348" y="630" as="sourcePoint" />
            <mxPoint x="1336" y="626" as="targetPoint" />
          </mxGeometry>
        </mxCell>
        <mxCell id="rgN-U1eAydfDt8y_0uh5-267" value="Платежі" style="rounded=0;whiteSpace=wrap;html=1;" vertex="1" parent="1">
          <mxGeometry x="1410" y="80" width="120" height="20" as="geometry" />
        </mxCell>
        <mxCell id="rgN-U1eAydfDt8y_0uh5-268" value="дата закінчення терміну дії картки" style="ellipse;whiteSpace=wrap;html=1;" vertex="1" parent="1">
          <mxGeometry x="1480" y="110" width="110" height="50" as="geometry" />
        </mxCell>
        <mxCell id="rgN-U1eAydfDt8y_0uh5-269" value="номер картки" style="ellipse;whiteSpace=wrap;html=1;" vertex="1" parent="1">
          <mxGeometry x="1540" y="30" width="80" height="30" as="geometry" />
        </mxCell>
        <mxCell id="rgN-U1eAydfDt8y_0uh5-270" value="" style="endArrow=none;html=1;rounded=0;entryX=0;entryY=1;entryDx=0;entryDy=0;exitX=1;exitY=0;exitDx=0;exitDy=0;" edge="1" parent="1" source="rgN-U1eAydfDt8y_0uh5-267" target="rgN-U1eAydfDt8y_0uh5-269">
          <mxGeometry width="50" height="50" relative="1" as="geometry">
            <mxPoint x="1570" y="130" as="sourcePoint" />
            <mxPoint x="1620" y="80" as="targetPoint" />
          </mxGeometry>
        </mxCell>
        <mxCell id="rgN-U1eAydfDt8y_0uh5-271" value="" style="endArrow=none;html=1;rounded=0;entryX=0.5;entryY=0;entryDx=0;entryDy=0;exitX=0.75;exitY=1;exitDx=0;exitDy=0;" edge="1" parent="1" source="rgN-U1eAydfDt8y_0uh5-267" target="rgN-U1eAydfDt8y_0uh5-268">
          <mxGeometry width="50" height="50" relative="1" as="geometry">
            <mxPoint x="1550" y="120" as="sourcePoint" />
            <mxPoint x="1610" y="100" as="targetPoint" />
          </mxGeometry>
        </mxCell>
        <mxCell id="rgN-U1eAydfDt8y_0uh5-272" value="" style="endArrow=none;html=1;rounded=0;entryX=0.5;entryY=0;entryDx=0;entryDy=0;exitX=0.25;exitY=1;exitDx=0;exitDy=0;" edge="1" parent="1" source="rgN-U1eAydfDt8y_0uh5-267" target="rgN-U1eAydfDt8y_0uh5-275">
          <mxGeometry width="50" height="50" relative="1" as="geometry">
            <mxPoint x="1510" y="150" as="sourcePoint" />
            <mxPoint x="1542" y="164" as="targetPoint" />
          </mxGeometry>
        </mxCell>
        <mxCell id="rgN-U1eAydfDt8y_0uh5-273" value="" style="endArrow=none;html=1;rounded=0;exitX=0.5;exitY=0;exitDx=0;exitDy=0;entryX=0.5;entryY=1;entryDx=0;entryDy=0;" edge="1" parent="1" source="rgN-U1eAydfDt8y_0uh5-267" target="rgN-U1eAydfDt8y_0uh5-274">
          <mxGeometry width="50" height="50" relative="1" as="geometry">
            <mxPoint x="1469.92" y="70" as="sourcePoint" />
            <mxPoint x="1480" y="70" as="targetPoint" />
          </mxGeometry>
        </mxCell>
        <mxCell id="rgN-U1eAydfDt8y_0uh5-274" value="&lt;p&gt;ідентифікатор платежу&lt;/p&gt;" style="ellipse;whiteSpace=wrap;html=1;" vertex="1" parent="1">
          <mxGeometry x="1420" y="20" width="100" height="50" as="geometry" />
        </mxCell>
        <mxCell id="rgN-U1eAydfDt8y_0uh5-275" value="ім’я власника картки" style="ellipse;whiteSpace=wrap;html=1;" vertex="1" parent="1">
          <mxGeometry x="1360" y="110" width="100" height="50" as="geometry" />
        </mxCell>
        <mxCell id="rgN-U1eAydfDt8y_0uh5-276" value="код безпеки" style="ellipse;whiteSpace=wrap;html=1;" vertex="1" parent="1">
          <mxGeometry x="1320" y="30" width="90" height="30" as="geometry" />
        </mxCell>
        <mxCell id="rgN-U1eAydfDt8y_0uh5-279" value="" style="endArrow=none;html=1;rounded=0;entryX=1;entryY=1;entryDx=0;entryDy=0;exitX=0;exitY=0;exitDx=0;exitDy=0;" edge="1" parent="1" source="rgN-U1eAydfDt8y_0uh5-267" target="rgN-U1eAydfDt8y_0uh5-276">
          <mxGeometry width="50" height="50" relative="1" as="geometry">
            <mxPoint x="1420" y="90" as="sourcePoint" />
            <mxPoint x="1408" y="86" as="targetPoint" />
          </mxGeometry>
        </mxCell>
        <mxCell id="rgN-U1eAydfDt8y_0uh5-284" value="вміст" style="ellipse;whiteSpace=wrap;html=1;" vertex="1" parent="1">
          <mxGeometry x="1410" y="670" width="80" height="30" as="geometry" />
        </mxCell>
        <mxCell id="rgN-U1eAydfDt8y_0uh5-285" value="Ролі" style="rounded=0;whiteSpace=wrap;html=1;" vertex="1" parent="1">
          <mxGeometry x="587" y="-120" width="120" height="20" as="geometry" />
        </mxCell>
        <mxCell id="rgN-U1eAydfDt8y_0uh5-286" value="назва" style="ellipse;whiteSpace=wrap;html=1;" vertex="1" parent="1">
          <mxGeometry x="607" y="-90" width="80" height="30" as="geometry" />
        </mxCell>
        <mxCell id="rgN-U1eAydfDt8y_0uh5-287" value="&lt;p&gt;ідентифікатор ролі&lt;/p&gt;" style="ellipse;whiteSpace=wrap;html=1;" vertex="1" parent="1">
          <mxGeometry x="597" y="-180" width="100" height="50" as="geometry" />
        </mxCell>
        <mxCell id="rgN-U1eAydfDt8y_0uh5-288" value="" style="endArrow=none;html=1;rounded=0;entryX=0.5;entryY=0;entryDx=0;entryDy=0;exitX=0.5;exitY=1;exitDx=0;exitDy=0;" edge="1" parent="1" source="rgN-U1eAydfDt8y_0uh5-285" target="rgN-U1eAydfDt8y_0uh5-286">
          <mxGeometry width="50" height="50" relative="1" as="geometry">
            <mxPoint x="687" y="-50" as="sourcePoint" />
            <mxPoint x="719" y="-36" as="targetPoint" />
          </mxGeometry>
        </mxCell>
        <mxCell id="rgN-U1eAydfDt8y_0uh5-289" value="" style="endArrow=none;html=1;rounded=0;entryX=0.5;entryY=1;entryDx=0;entryDy=0;exitX=0.5;exitY=0;exitDx=0;exitDy=0;" edge="1" parent="1" source="rgN-U1eAydfDt8y_0uh5-285" target="rgN-U1eAydfDt8y_0uh5-287">
          <mxGeometry width="50" height="50" relative="1" as="geometry">
            <mxPoint x="717" y="-110" as="sourcePoint" />
            <mxPoint x="777" y="-120" as="targetPoint" />
          </mxGeometry>
        </mxCell>
        <mxCell id="rgN-U1eAydfDt8y_0uh5-290" value="" style="endArrow=none;html=1;rounded=0;entryX=0.22;entryY=0.981;entryDx=0;entryDy=0;entryPerimeter=0;exitX=0.25;exitY=0;exitDx=0;exitDy=0;" edge="1" parent="1" source="rgN-U1eAydfDt8y_0uh5-77" target="rgN-U1eAydfDt8y_0uh5-285">
          <mxGeometry width="50" height="50" relative="1" as="geometry">
            <mxPoint x="680" y="-10" as="sourcePoint" />
            <mxPoint x="730" y="-60" as="targetPoint" />
          </mxGeometry>
        </mxCell>
        <mxCell id="rgN-U1eAydfDt8y_0uh5-291" value="" style="endArrow=none;html=1;rounded=0;entryX=0.814;entryY=0.998;entryDx=0;entryDy=0;entryPerimeter=0;exitX=0.176;exitY=-0.052;exitDx=0;exitDy=0;exitPerimeter=0;" edge="1" parent="1" source="rgN-U1eAydfDt8y_0uh5-218" target="rgN-U1eAydfDt8y_0uh5-245">
          <mxGeometry width="50" height="50" relative="1" as="geometry">
            <mxPoint x="220" y="190" as="sourcePoint" />
            <mxPoint x="270" y="140" as="targetPoint" />
          </mxGeometry>
        </mxCell>
        <mxCell id="rgN-U1eAydfDt8y_0uh5-292" value="" style="endArrow=none;html=1;rounded=0;entryX=0;entryY=0.25;entryDx=0;entryDy=0;exitX=1;exitY=0.5;exitDx=0;exitDy=0;" edge="1" parent="1" source="rgN-U1eAydfDt8y_0uh5-245" target="rgN-U1eAydfDt8y_0uh5-77">
          <mxGeometry width="50" height="50" relative="1" as="geometry">
            <mxPoint x="180" y="190" as="sourcePoint" />
            <mxPoint x="230" y="140" as="targetPoint" />
          </mxGeometry>
        </mxCell>
        <mxCell id="rgN-U1eAydfDt8y_0uh5-295" value="" style="endArrow=none;html=1;rounded=0;entryX=0;entryY=0;entryDx=0;entryDy=0;exitX=0.5;exitY=1;exitDx=0;exitDy=0;" edge="1" parent="1" source="rgN-U1eAydfDt8y_0uh5-77" target="rgN-U1eAydfDt8y_0uh5-95">
          <mxGeometry width="50" height="50" relative="1" as="geometry">
            <mxPoint x="640" y="110" as="sourcePoint" />
            <mxPoint x="620" y="290" as="targetPoint" />
          </mxGeometry>
        </mxCell>
        <mxCell id="rgN-U1eAydfDt8y_0uh5-296" value="" style="endArrow=none;html=1;rounded=0;entryX=0;entryY=1;entryDx=0;entryDy=0;exitX=0.75;exitY=0;exitDx=0;exitDy=0;" edge="1" parent="1" source="rgN-U1eAydfDt8y_0uh5-77" target="rgN-U1eAydfDt8y_0uh5-29">
          <mxGeometry width="50" height="50" relative="1" as="geometry">
            <mxPoint x="920" y="270" as="sourcePoint" />
            <mxPoint x="970" y="220" as="targetPoint" />
          </mxGeometry>
        </mxCell>
        <mxCell id="rgN-U1eAydfDt8y_0uh5-297" value="" style="endArrow=none;html=1;rounded=0;entryX=1;entryY=1;entryDx=0;entryDy=0;exitX=0.09;exitY=-0.021;exitDx=0;exitDy=0;exitPerimeter=0;" edge="1" parent="1" source="rgN-U1eAydfDt8y_0uh5-77" target="rgN-U1eAydfDt8y_0uh5-49">
          <mxGeometry width="50" height="50" relative="1" as="geometry">
            <mxPoint x="460" y="20" as="sourcePoint" />
            <mxPoint x="510" y="-30" as="targetPoint" />
          </mxGeometry>
        </mxCell>
        <mxCell id="rgN-U1eAydfDt8y_0uh5-298" value="" style="endArrow=none;html=1;rounded=0;entryX=0;entryY=0.25;entryDx=0;entryDy=0;" edge="1" parent="1" source="rgN-U1eAydfDt8y_0uh5-245" target="rgN-U1eAydfDt8y_0uh5-95">
          <mxGeometry width="50" height="50" relative="1" as="geometry">
            <mxPoint x="350" y="500" as="sourcePoint" />
            <mxPoint x="400" y="450" as="targetPoint" />
          </mxGeometry>
        </mxCell>
        <mxCell id="rgN-U1eAydfDt8y_0uh5-300" value="" style="endArrow=none;html=1;rounded=0;entryX=1;entryY=1;entryDx=0;entryDy=0;exitX=0;exitY=0;exitDx=0;exitDy=0;" edge="1" parent="1" source="rgN-U1eAydfDt8y_0uh5-111" target="rgN-U1eAydfDt8y_0uh5-95">
          <mxGeometry width="50" height="50" relative="1" as="geometry">
            <mxPoint x="710" y="620" as="sourcePoint" />
            <mxPoint x="760" y="570" as="targetPoint" />
          </mxGeometry>
        </mxCell>
        <mxCell id="rgN-U1eAydfDt8y_0uh5-301" value="" style="endArrow=none;html=1;rounded=0;entryX=0.997;entryY=0.674;entryDx=0;entryDy=0;entryPerimeter=0;exitX=0;exitY=0;exitDx=0;exitDy=0;" edge="1" parent="1" source="rgN-U1eAydfDt8y_0uh5-136" target="rgN-U1eAydfDt8y_0uh5-77">
          <mxGeometry width="50" height="50" relative="1" as="geometry">
            <mxPoint x="950" y="290" as="sourcePoint" />
            <mxPoint x="1000" y="240" as="targetPoint" />
          </mxGeometry>
        </mxCell>
        <mxCell id="rgN-U1eAydfDt8y_0uh5-302" value="" style="endArrow=none;html=1;rounded=0;entryX=0;entryY=1;entryDx=0;entryDy=0;exitX=1;exitY=0;exitDx=0;exitDy=0;" edge="1" parent="1" source="rgN-U1eAydfDt8y_0uh5-95" target="rgN-U1eAydfDt8y_0uh5-136">
          <mxGeometry width="50" height="50" relative="1" as="geometry">
            <mxPoint x="870" y="330" as="sourcePoint" />
            <mxPoint x="1030" y="110" as="targetPoint" />
          </mxGeometry>
        </mxCell>
        <mxCell id="rgN-U1eAydfDt8y_0uh5-303" value="" style="endArrow=none;html=1;rounded=0;entryX=0;entryY=1;entryDx=0;entryDy=0;exitX=0;exitY=0;exitDx=0;exitDy=0;" edge="1" parent="1" source="rgN-U1eAydfDt8y_0uh5-105" target="rgN-U1eAydfDt8y_0uh5-136">
          <mxGeometry width="50" height="50" relative="1" as="geometry">
            <mxPoint x="980" y="310" as="sourcePoint" />
            <mxPoint x="1030" y="130" as="targetPoint" />
          </mxGeometry>
        </mxCell>
        <mxCell id="rgN-U1eAydfDt8y_0uh5-304" value="" style="endArrow=none;html=1;rounded=0;entryX=0;entryY=1;entryDx=0;entryDy=0;exitX=0.25;exitY=0;exitDx=0;exitDy=0;" edge="1" parent="1" source="rgN-U1eAydfDt8y_0uh5-190" target="rgN-U1eAydfDt8y_0uh5-267">
          <mxGeometry width="50" height="50" relative="1" as="geometry">
            <mxPoint x="1240" y="210" as="sourcePoint" />
            <mxPoint x="1290" y="160" as="targetPoint" />
          </mxGeometry>
        </mxCell>
        <mxCell id="rgN-U1eAydfDt8y_0uh5-305" value="" style="endArrow=none;html=1;rounded=0;entryX=0;entryY=0.5;entryDx=0;entryDy=0;exitX=1;exitY=0.5;exitDx=0;exitDy=0;" edge="1" parent="1" source="rgN-U1eAydfDt8y_0uh5-190" target="rgN-U1eAydfDt8y_0uh5-43">
          <mxGeometry width="50" height="50" relative="1" as="geometry">
            <mxPoint x="1410" y="320" as="sourcePoint" />
            <mxPoint x="1610" y="440" as="targetPoint" />
          </mxGeometry>
        </mxCell>
        <mxCell id="rgN-U1eAydfDt8y_0uh5-306" value="" style="endArrow=none;html=1;rounded=0;entryX=0;entryY=0.75;entryDx=0;entryDy=0;exitX=1;exitY=0;exitDx=0;exitDy=0;" edge="1" parent="1" source="rgN-U1eAydfDt8y_0uh5-105" target="rgN-U1eAydfDt8y_0uh5-190">
          <mxGeometry width="50" height="50" relative="1" as="geometry">
            <mxPoint x="1070" y="530" as="sourcePoint" />
            <mxPoint x="1120" y="480" as="targetPoint" />
          </mxGeometry>
        </mxCell>
        <mxCell id="rgN-U1eAydfDt8y_0uh5-307" value="" style="endArrow=none;html=1;rounded=0;entryX=0;entryY=1;entryDx=0;entryDy=0;exitX=0.862;exitY=1.008;exitDx=0;exitDy=0;exitPerimeter=0;" edge="1" parent="1" source="rgN-U1eAydfDt8y_0uh5-77" target="rgN-U1eAydfDt8y_0uh5-190">
          <mxGeometry width="50" height="50" relative="1" as="geometry">
            <mxPoint x="690" y="110" as="sourcePoint" />
            <mxPoint x="1290" y="570" as="targetPoint" />
          </mxGeometry>
        </mxCell>
        <mxCell id="rgN-U1eAydfDt8y_0uh5-308" value="" style="endArrow=none;html=1;rounded=0;entryX=0.25;entryY=1;entryDx=0;entryDy=0;exitX=1;exitY=0;exitDx=0;exitDy=0;" edge="1" parent="1" source="rgN-U1eAydfDt8y_0uh5-111" target="rgN-U1eAydfDt8y_0uh5-190">
          <mxGeometry width="50" height="50" relative="1" as="geometry">
            <mxPoint x="1200" y="570" as="sourcePoint" />
            <mxPoint x="1250" y="520" as="targetPoint" />
          </mxGeometry>
        </mxCell>
        <mxCell id="rgN-U1eAydfDt8y_0uh5-309" value="" style="endArrow=none;html=1;rounded=0;entryX=0.75;entryY=1;entryDx=0;entryDy=0;exitX=1;exitY=0;exitDx=0;exitDy=0;" edge="1" parent="1" source="rgN-U1eAydfDt8y_0uh5-258" target="rgN-U1eAydfDt8y_0uh5-190">
          <mxGeometry width="50" height="50" relative="1" as="geometry">
            <mxPoint x="1430" y="540" as="sourcePoint" />
            <mxPoint x="1480" y="490" as="targetPoint" />
          </mxGeometry>
        </mxCell>
        <mxCell id="rgN-U1eAydfDt8y_0uh5-310" value="" style="endArrow=none;html=1;rounded=0;entryX=0;entryY=0.5;entryDx=0;entryDy=0;exitX=1;exitY=0.5;exitDx=0;exitDy=0;" edge="1" parent="1" source="rgN-U1eAydfDt8y_0uh5-258" target="rgN-U1eAydfDt8y_0uh5-231">
          <mxGeometry width="50" height="50" relative="1" as="geometry">
            <mxPoint x="1480" y="570" as="sourcePoint" />
            <mxPoint x="1530" y="520" as="targetPoint" />
          </mxGeometry>
        </mxCell>
        <mxCell id="rgN-U1eAydfDt8y_0uh5-311" value="" style="endArrow=none;html=1;rounded=0;entryX=0.858;entryY=1.017;entryDx=0;entryDy=0;entryPerimeter=0;exitX=0;exitY=0;exitDx=0;exitDy=0;" edge="1" parent="1" source="rgN-U1eAydfDt8y_0uh5-231" target="rgN-U1eAydfDt8y_0uh5-190">
          <mxGeometry width="50" height="50" relative="1" as="geometry">
            <mxPoint x="1500" y="560" as="sourcePoint" />
            <mxPoint x="1550" y="510" as="targetPoint" />
          </mxGeometry>
        </mxCell>
        <mxCell id="rgN-U1eAydfDt8y_0uh5-312" value="" style="endArrow=none;html=1;rounded=0;entryX=1;entryY=1;entryDx=0;entryDy=0;exitX=0;exitY=0;exitDx=0;exitDy=0;" edge="1" parent="1" source="rgN-U1eAydfDt8y_0uh5-190" target="rgN-U1eAydfDt8y_0uh5-245">
          <mxGeometry width="50" height="50" relative="1" as="geometry">
            <mxPoint x="1100" y="330" as="sourcePoint" />
            <mxPoint x="210" y="100" as="targetPoint" />
          </mxGeometry>
        </mxCell>
        <mxCell id="rgN-U1eAydfDt8y_0uh5-313" value="" style="endArrow=none;html=1;rounded=0;exitX=1;exitY=0.5;exitDx=0;exitDy=0;entryX=0;entryY=0;entryDx=0;entryDy=0;" edge="1" parent="1" source="rgN-U1eAydfDt8y_0uh5-218" target="rgN-U1eAydfDt8y_0uh5-190">
          <mxGeometry width="50" height="50" relative="1" as="geometry">
            <mxPoint x="440" y="340" as="sourcePoint" />
            <mxPoint x="1340" y="480" as="targetPoint" />
          </mxGeometry>
        </mxCell>
      </root>
    </mxGraphModel>
  </diagram>
</mxfile>
